<?xml version="1.0" encoding="utf-8"?>
<!-- Generator: Adobe Illustrator 25.2.3, SVG Export Plug-In . SVG Version: 6.00 Build 0)  -->
<svg version="1.1" id="Layer_1" xmlns="http://www.w3.org/2000/svg" xmlns:xlink="http://www.w3.org/1999/xlink" x="0px" y="0px"
	 viewBox="0 0 352 100" style="enable-background:new 0 0 352 100;" xml:space="preserve">
<style type="text/css">
	.st0{fill:#334252;}
	.st1{fill:#00BDAA;}
	.st2{fill:url(#SVGID_1_);}
	.st3{fill:url(#SVGID_2_);}
	.st4{fill:url(#SVGID_3_);}
	.st5{fill:url(#SVGID_4_);}
	.st6{fill:url(#SVGID_5_);}
	.st7{fill:url(#SVGID_6_);}
	.st8{fill:url(#SVGID_7_);}
	.st9{fill:url(#SVGID_8_);}
	.st10{fill:#FF895D;}
</style>
<g>
	<g id="ARC_362_">
		<g id="XMLID_39_">
			<path class="st0" d="M347.31,42.07c1.66,3.06,2.49,6.68,2.49,10.86c0,4.18-0.83,7.81-2.49,10.89c-1.67,3.08-4,5.45-7,7.11
				c-2.99,1.67-6.54,2.5-10.61,2.5c-4.07,0-7.61-0.83-10.61-2.5c-3.01-1.66-5.33-4.03-6.99-7.11c-1.67-3.08-2.49-6.71-2.49-10.89
				c0-4.18,0.82-7.8,2.49-10.86c1.66-3.05,3.99-5.41,6.99-7.07c3.01-1.67,6.54-2.5,10.61-2.5c4.07,0,7.62,0.83,10.61,2.5
				C343.31,36.66,345.64,39.02,347.31,42.07z M339.67,52.93c0-4.29-0.92-7.5-2.74-9.61c-1.82-2.12-4.23-3.18-7.24-3.18
				c-3.01,0-5.41,1.06-7.24,3.18c-1.82,2.11-2.73,5.32-2.73,9.61c0,4.23,0.91,7.43,2.73,9.6c1.83,2.18,4.23,3.26,7.24,3.26
				s5.42-1.09,7.24-3.26C338.75,60.36,339.67,57.16,339.67,52.93z"/>
			<polygon class="st0" points="277.02,50.03 292.39,33.82 304.52,33.82 287.15,52.12 306.47,72.95 294.08,72.95 277.02,55.1 
				276.86,55.1 276.86,72.95 266.81,72.95 266.81,15.67 276.86,15.67 276.86,50.03 			"/>
			<polygon class="st0" points="231.09,50.03 246.45,33.82 258.59,33.82 241.22,52.12 260.54,72.95 248.16,72.95 231.09,55.1 
				230.93,55.1 230.93,72.95 220.88,72.95 220.88,15.67 230.93,15.67 230.93,50.03 			"/>
			<path class="st0" d="M212.92,52.28v2.97h-28.15c0.74,7.03,4.76,10.54,12.06,10.54c1.39,0,2.96-0.17,4.71-0.53
				c1.73-0.34,3.38-0.95,4.93-1.81l1.06-0.6l3.67,6.38c-0.4,0.27-0.83,0.52-1.27,0.74c-1.88,1.17-4.03,2.05-6.46,2.61
				c-2.45,0.57-4.71,0.85-6.8,0.85c-4.45,0-8.29-0.83-11.5-2.5c-3.22-1.66-5.7-4.02-7.43-7.07c-1.75-3.06-2.62-6.68-2.62-10.86
				c0-4.07,0.84-7.64,2.53-10.69c1.69-3.06,4.02-5.46,6.99-7.2c2.97-1.75,6.37-2.62,10.17-2.62c5.58,0,9.99,1.77,13.23,5.31
				C211.3,41.35,212.92,46.17,212.92,52.28z M184.78,49.47h19.77c-0.21-3.28-1.11-5.78-2.69-7.52c-1.57-1.75-3.79-2.61-6.63-2.61
				c-2.95,0-5.33,0.91-7.15,2.73C186.24,43.89,185.15,46.36,184.78,49.47z"/>
		</g>
	</g>
	<g>
		<path class="st1" d="M141.94,29.45c3.01,13.53,3.01,27.56,0,41.08c-4.43,9.71-11.87,17.72-21.23,22.86
			c16.24-26.65,16.24-60.14,0-86.8C130.07,11.73,137.52,19.74,141.94,29.45z"/>
		<path class="st1" d="M102.19,0.78c25.88,27.71,25.88,70.73,0,98.44c-5.29,0.56-10.64,0.28-15.85-0.87
			c3.97-3.02,7.46-6.44,10.45-10.15c17.22-21.29,18.39-52.32,1.06-75.06c-0.34-0.45-0.7-0.9-1.06-1.34
			c-3.05-3.78-6.57-7.2-10.45-10.16C91.54,0.51,96.89,0.22,102.19,0.78z"/>
		
			<linearGradient id="SVGID_1_" gradientUnits="userSpaceOnUse" x1="112.6871" y1="57.884" x2="26.4142" y2="40.4074" gradientTransform="matrix(1 0 0 -1 0 102)">
			<stop  offset="0" style="stop-color:#FF895D"/>
			<stop  offset="1" style="stop-color:#C40B13"/>
		</linearGradient>
		<path class="st2" d="M97.86,39.44c3.82,17.51-2.14,34.88-14.21,46.39c-3.8-1.41-7.31-3.4-10.43-5.88
			c8.85-7.03,14.51-17.88,14.48-30.07c-0.03-12.1-5.68-22.87-14.49-29.84c3.12-2.48,6.62-4.47,10.43-5.88
			C90.66,20.84,95.7,29.58,97.86,39.44z"/>
		
			<linearGradient id="SVGID_2_" gradientUnits="userSpaceOnUse" x1="103.0724" y1="90.0241" x2="48.883" y2="102.2305" gradientTransform="matrix(1 0 0 -1 0 102)">
			<stop  offset="0" style="stop-color:#007CB9"/>
			<stop  offset="1" style="stop-color:#00BDAA"/>
		</linearGradient>
		<path class="st3" d="M86.34,1.64c3.89,2.96,7.4,6.38,10.45,10.16c-4.63,0.01-9.07,0.84-13.16,2.36
			c-3.12-2.98-6.62-5.55-10.45-7.62C77.22,4.33,81.62,2.67,86.34,1.64z"/>
		
			<linearGradient id="SVGID_3_" gradientUnits="userSpaceOnUse" x1="85.0868" y1="10.18" x2="30.8983" y2="22.3864" gradientTransform="matrix(1 0 0 -1 0 102)">
			<stop  offset="0" style="stop-color:#007CB9"/>
			<stop  offset="1" style="stop-color:#00BDAA"/>
		</linearGradient>
		<path class="st4" d="M96.79,88.2c-3,3.72-6.48,7.13-10.45,10.15c-4.66-1.02-9.07-2.69-13.13-4.91c3.84-2.09,7.33-4.65,10.43-7.61
			C87.74,87.35,92.16,88.19,96.79,88.2z"/>
		
			<linearGradient id="SVGID_4_" gradientUnits="userSpaceOnUse" x1="119.4204" y1="24.6577" x2="33.1432" y2="7.1802" gradientTransform="matrix(1 0 0 -1 0 102)">
			<stop  offset="0" style="stop-color:#FF895D"/>
			<stop  offset="1" style="stop-color:#C40B13"/>
		</linearGradient>
		<path class="st5" d="M83.64,85.84c-3.1,2.97-6.59,5.53-10.43,7.61c-3.82-2.08-7.32-4.65-10.44-7.62c3.8-1.41,7.32-3.4,10.44-5.87
			C76.33,82.43,79.85,84.43,83.64,85.84z"/>
		
			<linearGradient id="SVGID_5_" gradientUnits="userSpaceOnUse" x1="101.3494" y1="82.3627" x2="47.1585" y2="94.5697" gradientTransform="matrix(1 0 0 -1 0 102)">
			<stop  offset="0" style="stop-color:#007CB9"/>
			<stop  offset="1" style="stop-color:#00BDAA"/>
		</linearGradient>
		<path class="st6" d="M73.18,6.54c3.83,2.08,7.34,4.64,10.45,7.62c-3.81,1.41-7.31,3.41-10.43,5.88
			c-3.12-2.49-6.65-4.48-10.45-5.89C65.84,11.2,69.34,8.63,73.18,6.54z"/>
		
			<linearGradient id="SVGID_6_" gradientUnits="userSpaceOnUse" x1="92.9761" y1="45.2034" x2="38.7873" y2="57.4099" gradientTransform="matrix(1 0 0 -1 0 102)">
			<stop  offset="0" style="stop-color:#007CB9"/>
			<stop  offset="1" style="stop-color:#00BDAA"/>
		</linearGradient>
		<path class="st7" d="M58.7,50.11c0.03,12.09,5.7,22.87,14.51,29.85c-3.12,2.46-6.64,4.46-10.44,5.87
			c-7.02-6.67-12.07-15.4-14.23-25.27c-3.83-17.5,2.12-34.88,14.2-46.41c3.81,1.41,7.33,3.41,10.45,5.89
			C64.33,27.06,58.67,37.92,58.7,50.11z"/>
		
			<linearGradient id="SVGID_7_" gradientUnits="userSpaceOnUse" x1="119.9772" y1="21.9186" x2="33.6959" y2="4.4403" gradientTransform="matrix(1 0 0 -1 0 102)">
			<stop  offset="0" style="stop-color:#FF895D"/>
			<stop  offset="1" style="stop-color:#C40B13"/>
		</linearGradient>
		<path class="st8" d="M62.77,85.83c3.12,2.98,6.62,5.55,10.44,7.62c-4.03,2.21-8.45,3.87-13.16,4.91
			C56.17,95.4,52.66,92,49.61,88.2C54.23,88.19,58.67,87.35,62.77,85.83z"/>
		
			<linearGradient id="SVGID_8_" gradientUnits="userSpaceOnUse" x1="103.617" y1="102.6555" x2="17.3461" y2="85.1793" gradientTransform="matrix(1 0 0 -1 0 102)">
			<stop  offset="0" style="stop-color:#FF895D"/>
			<stop  offset="1" style="stop-color:#C40B13"/>
		</linearGradient>
		<path class="st9" d="M73.18,6.54c-3.84,2.09-7.33,4.66-10.43,7.61c-4.09-1.51-8.52-2.34-13.15-2.35l-0.01-0.01
			c3.01-3.72,6.49-7.14,10.46-10.15C64.71,2.66,69.12,4.32,73.18,6.54z"/>
		<path class="st10" d="M49.61,88.2c3.05,3.79,6.56,7.2,10.44,10.15c-5.19,1.14-10.54,1.43-15.83,0.87
			c-25.89-27.71-25.89-70.73,0-98.44c5.29-0.57,10.64-0.28,15.83,0.86c-3.97,3.02-7.45,6.43-10.46,10.15
			c-17.21,21.28-18.38,52.32-1.04,75.06C48.89,87.3,49.24,87.76,49.61,88.2z"/>
		<path class="st10" d="M4.46,29.45C8.88,19.74,16.33,11.73,25.68,6.6c-16.25,26.65-16.25,60.14,0,86.8
			c-9.35-5.14-16.8-13.15-21.23-22.86C1.45,57.01,1.45,42.98,4.46,29.45z"/>
	</g>
</g>
</svg>
