<?xml version="1.0" standalone="no"?>
<!DOCTYPE svg PUBLIC "-//W3C//DTD SVG 20010904//EN"
 "http://www.w3.org/TR/2001/REC-SVG-20010904/DTD/svg10.dtd">
<svg version="1.0" xmlns="http://www.w3.org/2000/svg"
 width="920.000000pt" height="920.000000pt" viewBox="0 0 920.000000 920.000000"
 preserveAspectRatio="xMidYMid meet">
<metadata>
Created by potrace 1.14, written by Peter Selinger 2001-2017
</metadata>
<g transform="translate(0.000000,920.000000) scale(0.100000,-0.100000)"
fill="#000000" stroke="none">
<path d="M2977 7784 c-1 -1 -51 -5 -110 -8 -59 -3 -116 -10 -126 -15 -40 -22
-215 -228 -360 -425 -66 -89 -241 -351 -241 -360 0 -3 -21 -39 -46 -82 -74
-125 -243 -472 -258 -529 -2 -5 -9 -23 -15 -40 -27 -63 -34 -84 -78 -205 -24
-69 -46 -132 -48 -140 -2 -8 -15 -55 -29 -105 -15 -49 -28 -97 -31 -105 -7
-27 -37 -155 -41 -175 -2 -11 -8 -42 -14 -70 -13 -62 -17 -84 -24 -126 -3 -19
-8 -45 -10 -59 -3 -14 -7 -45 -10 -70 -3 -25 -8 -54 -10 -65 -6 -32 -19 -168
-31 -330 -7 -85 -7 -446 -1 -535 12 -164 17 -229 21 -257 2 -15 6 -50 10 -78
3 -27 10 -75 15 -105 6 -30 12 -71 14 -90 3 -19 12 -71 21 -115 9 -44 19 -89
21 -100 11 -59 59 -240 82 -310 14 -44 26 -87 27 -95 1 -8 5 -22 9 -30 3 -8
19 -54 35 -101 78 -226 247 -598 335 -738 14 -22 26 -43 26 -45 0 -15 209
-334 282 -431 106 -140 143 -185 150 -185 5 0 8 -5 8 -11 0 -6 6 -16 13 -24
27 -28 136 -151 154 -173 16 -19 30 -23 118 -29 185 -11 478 -6 605 12 14 2
48 6 75 10 28 4 62 8 76 10 14 1 30 4 35 7 5 3 31 9 58 12 27 4 52 9 56 11 4
2 17 6 31 9 52 11 70 15 144 36 42 12 84 23 93 25 32 7 247 85 289 105 24 11
49 20 57 20 7 0 19 7 26 15 7 8 18 15 25 15 16 0 179 82 183 92 2 3 44 -15 95
-41 179 -92 403 -179 612 -236 55 -15 107 -28 115 -30 8 -1 33 -6 55 -10 22
-4 47 -9 55 -10 8 -1 42 -7 75 -13 118 -21 179 -29 315 -38 100 -7 375 -7 450
0 19 2 50 4 68 5 33 1 38 5 112 88 73 81 92 104 150 178 30 39 57 72 60 75 19
16 192 267 270 390 98 157 307 562 335 650 4 12 18 48 31 76 54 122 163 467
203 644 11 47 22 99 24 117 3 17 7 35 10 40 3 4 8 33 12 63 4 30 9 58 11 61 2
4 6 28 9 55 3 27 8 62 11 79 4 16 8 43 9 60 2 16 6 53 9 80 8 65 15 152 21
245 7 99 7 470 1 540 -3 30 -8 91 -11 135 -8 103 -12 133 -18 170 -3 17 -9 57
-13 90 -4 33 -8 62 -9 65 0 3 -4 28 -9 55 -11 75 -43 230 -66 320 -11 44 -22
87 -24 95 -2 8 -10 35 -17 60 -7 25 -13 50 -15 56 -3 15 -93 285 -103 309 -5
11 -32 79 -61 150 -50 124 -165 363 -232 483 -83 149 -289 467 -336 518 -10
10 -32 39 -49 64 -18 25 -45 59 -60 77 -15 17 -44 51 -63 74 -31 39 -73 86
-136 155 -18 20 -34 24 -130 30 -183 13 -502 7 -589 -11 -11 -2 -42 -6 -70 -9
-27 -3 -61 -8 -75 -12 -14 -3 -38 -7 -55 -8 -16 -2 -48 -8 -70 -14 -22 -6 -53
-13 -70 -16 -35 -6 -58 -11 -103 -25 -18 -5 -36 -10 -40 -11 -19 -2 -90 -22
-117 -33 -16 -6 -34 -12 -40 -13 -21 -5 -162 -56 -200 -73 -22 -10 -50 -22
-62 -25 -13 -4 -78 -35 -147 -69 -122 -61 -140 -65 -166 -37 -3 3 -36 21 -75
39 -38 18 -79 38 -90 44 -22 11 -204 87 -220 91 -23 5 -122 38 -140 46 -17 8
-65 21 -125 36 -8 2 -42 10 -76 18 -70 17 -90 21 -199 41 -159 28 -191 32
-340 41 -100 6 -304 11 -308 8z m343 -739 c25 -3 65 -7 89 -10 56 -7 101 -14
124 -21 10 -3 30 -7 46 -9 75 -10 341 -89 341 -102 0 -3 -21 -26 -47 -52 -96
-94 -245 -267 -303 -351 -13 -19 -27 -37 -30 -40 -28 -22 -194 -297 -263 -435
-85 -172 -190 -435 -212 -535 -2 -8 -17 -69 -33 -135 -16 -66 -33 -136 -36
-155 -3 -19 -8 -46 -11 -60 -27 -136 -40 -296 -40 -525 0 -255 7 -349 42 -550
8 -49 17 -99 18 -110 2 -11 8 -40 15 -65 13 -49 13 -49 34 -132 16 -64 51
-176 71 -228 8 -19 25 -64 39 -100 39 -102 109 -252 165 -356 60 -109 188
-311 218 -342 7 -7 13 -17 13 -20 0 -4 10 -18 23 -32 12 -14 35 -43 52 -65 16
-21 36 -46 45 -55 8 -9 28 -31 43 -50 16 -19 69 -77 119 -127 49 -51 85 -94
79 -94 -16 -2 -19 -3 -107 -31 -84 -28 -191 -57 -234 -64 -199 -35 -267 -43
-393 -49 -84 -3 -100 -2 -115 14 -36 37 -62 72 -62 81 0 6 -3 10 -7 10 -5 0
-19 17 -33 38 -14 20 -28 39 -31 42 -3 3 -37 52 -74 110 -37 58 -79 121 -92
141 -12 19 -23 40 -23 46 0 6 -3 13 -7 15 -19 8 -178 327 -241 483 -46 114
-106 284 -129 365 -38 140 -70 266 -77 310 -1 8 -6 29 -9 45 -4 17 -9 46 -12
65 -3 19 -10 60 -15 90 -47 276 -58 705 -26 995 8 69 18 144 27 205 6 36 12
76 14 90 2 14 12 66 24 115 11 50 22 101 25 115 24 118 112 393 181 560 70
173 196 424 270 540 12 19 36 58 54 85 47 76 152 226 184 265 7 8 25 32 40 52
l28 37 97 -4 c53 -3 117 -7 142 -10z m2810 -1 c0 -7 4 -14 8 -16 5 -1 31 -32
58 -68 26 -36 51 -67 54 -70 4 -3 9 -12 13 -20 6 -13 85 -130 105 -155 4 -5
11 -17 15 -25 5 -8 30 -51 57 -95 27 -44 89 -161 139 -260 130 -261 221 -506
285 -761 14 -55 27 -110 30 -124 3 -14 8 -36 11 -50 6 -29 9 -46 29 -165 13
-80 20 -128 32 -230 23 -192 23 -610 0 -800 -2 -16 -7 -59 -11 -94 -3 -36 -8
-67 -10 -70 -1 -3 -6 -30 -10 -60 -4 -30 -8 -61 -10 -70 -10 -44 -47 -219 -50
-236 -18 -90 -89 -314 -150 -475 -58 -153 -182 -421 -197 -428 -5 -2 -8 -12
-8 -23 0 -10 -4 -19 -10 -19 -5 0 -10 -5 -10 -11 0 -13 -82 -153 -92 -157 -5
-2 -8 -8 -8 -13 0 -10 -156 -248 -169 -259 -3 -3 -30 -37 -60 -77 l-54 -72
-96 5 c-109 5 -170 10 -221 18 -19 3 -52 8 -74 11 -21 2 -46 7 -55 9 -9 3 -32
7 -51 10 -29 4 -263 68 -295 80 -5 2 -20 7 -32 11 -22 7 -20 10 33 63 71 72
191 205 234 262 43 56 52 68 65 83 6 7 26 35 45 62 19 28 37 52 42 53 4 2 8 8
8 12 0 5 24 47 54 92 30 46 62 100 72 121 10 20 21 37 26 37 4 0 8 8 8 19 0
10 9 30 20 44 11 14 20 29 20 34 0 4 11 29 24 54 14 25 41 86 61 135 20 49 40
98 46 109 17 36 78 225 72 225 -3 0 -1 6 4 13 9 10 20 48 39 130 2 9 6 25 9
35 11 46 46 228 51 275 4 28 8 55 10 58 9 16 19 225 18 409 0 244 -5 317 -34
490 -20 119 -21 123 -40 205 -6 28 -14 60 -16 72 -2 12 -9 34 -14 48 -5 14 -8
25 -5 25 2 0 -2 15 -10 33 -7 17 -14 35 -14 39 -1 4 -3 13 -5 20 -39 123 -50
155 -57 163 -5 5 -9 17 -9 27 0 10 -4 26 -9 36 -5 9 -13 28 -19 42 -6 14 -29
65 -52 113 -22 49 -40 90 -40 92 0 1 -28 51 -61 111 -34 60 -70 125 -81 144
-71 129 -292 411 -437 558 -45 45 -77 82 -72 82 5 0 22 5 38 12 15 6 34 13 41
15 6 1 18 5 25 6 6 2 19 7 27 10 18 7 134 37 170 44 14 2 45 9 70 14 25 6 63
13 85 15 22 3 51 8 65 10 14 3 57 8 95 11 39 3 71 6 72 7 2 1 39 3 83 3 58 0
80 -3 80 -13z m-1467 -566 c210 -181 440 -458 553 -668 10 -19 26 -43 34 -54
8 -10 14 -21 13 -25 -1 -3 16 -43 38 -88 21 -46 46 -102 55 -125 9 -24 20 -52
24 -63 29 -67 90 -282 103 -360 3 -16 10 -57 16 -90 10 -55 14 -87 26 -210 5
-46 5 -320 1 -380 -6 -77 -18 -180 -22 -186 -2 -4 -6 -31 -10 -60 -3 -30 -8
-57 -11 -62 -2 -4 -7 -20 -9 -35 -26 -144 -100 -361 -187 -543 -139 -289 -381
-603 -612 -794 -26 -22 -54 -46 -61 -53 -15 -14 -15 -14 -117 78 -110 99 -214
208 -290 304 -26 34 -54 69 -62 79 -8 9 -15 21 -15 27 0 5 -8 14 -17 19 -10 6
-13 11 -8 11 6 0 6 3 -1 8 -12 8 -74 98 -74 107 0 4 -13 25 -28 48 -43 65
-172 334 -172 360 0 7 -4 17 -8 23 -5 5 -14 29 -21 54 -7 25 -17 54 -22 65
-24 56 -83 326 -94 435 -24 221 -19 507 11 675 2 10 6 35 9 55 3 20 8 47 11
60 3 14 7 36 10 50 37 189 188 570 281 708 14 19 29 46 34 59 5 13 13 23 19
23 5 0 10 6 10 13 0 7 7 22 15 32 8 11 47 62 86 113 100 132 225 265 344 367
32 28 63 55 69 62 6 7 12 12 14 13 2 0 31 -24 65 -52z"/>
<path d="M1475 7354 c-27 -18 -54 -33 -58 -33 -4 -1 -13 -6 -20 -11 -7 -6 -50
-36 -97 -67 -79 -52 -190 -134 -216 -158 -6 -5 -28 -23 -49 -40 -235 -184
-525 -523 -695 -814 -120 -204 -162 -297 -186 -416 -2 -11 -6 -31 -9 -45 -2
-14 -7 -41 -10 -60 -3 -19 -8 -42 -10 -50 -2 -8 -7 -31 -10 -50 -3 -19 -7 -46
-10 -60 -6 -32 -14 -94 -19 -145 -3 -22 -7 -56 -11 -75 -3 -19 -7 -55 -9 -80
-2 -25 -7 -74 -10 -110 -14 -143 -18 -227 -21 -505 -1 -159 1 -300 6 -312 5
-15 5 -23 -2 -23 -6 0 -8 -4 -5 -8 5 -8 10 -66 21 -232 4 -54 12 -130 20 -180
2 -14 7 -52 11 -85 3 -33 8 -69 10 -80 2 -11 6 -38 9 -60 3 -22 8 -51 10 -65
5 -24 12 -61 19 -105 2 -11 6 -33 10 -50 3 -16 8 -39 10 -50 25 -122 73 -229
198 -434 64 -106 189 -289 220 -323 7 -7 33 -38 58 -68 215 -263 557 -552 852
-719 l57 -32 -22 40 c-12 21 -37 65 -56 98 -56 95 -176 330 -225 443 -26 58
-51 114 -56 125 -48 104 -202 540 -214 605 -2 14 -9 36 -14 50 -5 14 -10 27
-10 30 0 3 -5 25 -12 50 -15 55 -87 389 -88 410 -1 8 -4 26 -6 40 -3 14 -7 41
-10 60 -3 19 -8 46 -11 60 -3 14 -8 48 -11 75 -3 28 -7 64 -9 80 -22 176 -36
425 -35 625 0 145 8 365 15 430 2 25 7 72 11 105 3 33 7 74 9 90 2 30 10 86
22 160 3 22 7 49 8 60 2 11 10 61 20 110 9 50 19 101 21 115 7 38 22 106 45
195 11 44 22 91 25 104 9 43 96 332 111 371 3 8 7 20 9 25 1 6 21 56 43 113
21 56 40 105 41 107 3 11 33 84 56 134 13 29 24 59 24 66 0 8 7 21 16 29 8 9
13 16 10 16 -7 0 170 347 233 458 30 51 52 94 50 96 -2 2 -26 -12 -54 -30z"/>
<path d="M7678 7358 c21 -34 51 -85 75 -128 78 -137 225 -442 286 -595 5 -11
13 -31 19 -45 7 -14 21 -52 33 -85 11 -33 27 -73 34 -90 28 -64 135 -418 150
-495 2 -11 6 -24 9 -28 3 -5 8 -22 11 -38 6 -37 14 -73 19 -99 3 -11 12 -54
21 -95 9 -41 18 -84 19 -95 3 -22 16 -99 22 -130 5 -25 14 -90 18 -135 2 -19
6 -48 9 -65 5 -27 13 -109 23 -235 2 -25 6 -110 10 -190 3 -80 8 -148 10 -152
2 -4 0 -9 -6 -13 -7 -4 -7 -12 0 -24 5 -10 7 -21 4 -23 -4 -5 -5 -23 -3 -108
0 -32 -11 -245 -15 -294 -21 -222 -34 -341 -42 -381 -3 -11 -7 -38 -10 -60 -3
-22 -17 -96 -30 -165 -14 -69 -27 -138 -30 -155 -3 -16 -12 -55 -20 -85 -16
-60 -17 -64 -33 -130 -7 -25 -13 -52 -15 -60 -12 -47 -99 -316 -121 -375 -15
-38 -31 -83 -37 -100 -10 -31 -12 -36 -47 -116 -11 -25 -29 -68 -39 -95 -11
-27 -44 -98 -73 -159 -29 -60 -53 -112 -53 -115 -1 -3 -6 -12 -11 -20 -5 -8
-26 -46 -46 -85 -44 -86 -95 -178 -126 -228 -14 -22 -22 -41 -20 -44 7 -6 79
35 207 120 274 182 467 355 709 637 54 63 169 223 228 318 142 229 212 377
229 485 3 18 7 41 8 52 2 11 4 20 5 20 1 0 4 14 6 30 2 17 7 41 10 55 4 14 9
38 11 53 9 74 15 113 20 129 3 9 7 42 9 75 2 32 5 58 5 58 5 0 26 197 36 345
9 120 12 644 4 694 -4 26 -3 46 2 46 5 0 6 4 3 10 -6 10 -9 38 -20 175 -3 44
-9 98 -11 120 -3 22 -7 54 -9 70 -7 66 -17 150 -21 169 -2 12 -6 39 -9 61 -5
38 -8 59 -20 115 -2 14 -7 41 -10 60 -3 19 -8 42 -10 50 -2 8 -7 29 -10 45
-16 95 -19 104 -72 210 -79 157 -264 456 -317 511 -6 6 -22 26 -36 44 -140
184 -362 399 -595 577 -66 50 -258 175 -329 213 l-38 21 20 -33z"/>
</g>
</svg>
